<svg width="270" height="72" viewBox="0 0 270 72" fill="none" xmlns="http://www.w3.org/2000/svg">
<path d="M211.429 1.03359C210.051 2.12462 209.19 5.51254 209.19 9.7618C209.132 14.0685 210.453 14.9298 217.401 14.9298C225.096 14.9298 226.244 13.8962 226.761 6.54614C227.048 2.87111 226.933 2.29689 225.842 1.20586C224.751 0.114836 224.005 -9.53674e-06 218.664 -9.53674e-06C213.784 -9.53674e-06 212.463 0.172257 211.429 1.03359Z" fill="#1FD86D"/>
<path d="M0.401957 34.2812C0.631646 53.1731 1.0336 66.208 1.37814 66.8971C2.87112 69.8256 3.67503 70.0553 15.1021 70.0553C24.8639 70.0553 25.8975 69.9405 27.2182 68.9069C28.0221 68.3326 28.9409 67.0693 29.2854 66.208C30.1467 64.0834 41.1144 24.749 42.0332 20.6721C43.0668 15.7912 43.1816 15.504 44.1004 15.504C44.7895 15.504 44.9043 19.1791 44.9043 40.4828C44.9043 58.5708 45.0766 65.806 45.5934 66.8971C46.8567 69.7108 48.5219 70.0553 59.6618 70.0553C70.8592 70.0553 71.9502 69.7682 73.0987 66.6674C73.96 64.5427 91.4164 4.13441 91.4164 3.44534C91.4164 3.10081 87.9137 2.87112 82.516 2.87112C77.6351 2.87112 73.6155 3.04338 73.6155 3.27307C73.6155 3.50276 70.9166 14.7001 67.6436 28.137C64.3131 41.5738 61.4994 53.6325 61.2697 54.9532C60.9826 56.7907 60.638 57.4224 59.8915 57.4224C58.9154 57.4224 58.8005 55.872 58.456 33.4198C58.2263 20.2701 57.8818 8.67078 57.7095 7.63718C57.5372 6.60358 56.7907 5.1106 55.9868 4.30668C54.5513 2.87112 54.379 2.87112 45.1914 2.87112C34.5108 2.87112 33.6495 3.15823 32.0417 7.63718C30.6061 11.5419 19.2365 51.7376 18.7771 54.4364C18.4326 56.6759 17.2267 58.054 16.4228 57.2501C16.2505 57.0778 16.5376 45.6508 16.997 31.812C17.5138 17.9158 17.9158 5.74224 17.9158 4.70863V2.87112H8.95789H0L0.401957 34.2812Z" fill="black"/>
<path d="M162.62 4.07699C158.256 6.02935 154.868 10.0489 153.777 14.4704C153.548 15.6189 145.968 69.0217 145.968 69.883C145.968 69.9979 149.987 70.0553 154.868 70.0553C163.596 70.0553 163.769 70.0553 164.056 68.7346C164.171 68.0455 164.975 62.533 165.778 56.561C166.582 50.5317 167.329 45.0766 167.501 44.3875C167.788 43.0668 167.846 43.0668 180.134 43.0668C189.609 43.0668 192.48 42.8945 192.48 42.3203C192.537 41.9758 192.882 39.2195 193.284 36.2909L194.03 31.0081H181.684H169.396L169.798 27.9647C170.659 21.1314 171.406 18.3177 172.612 17.5138C173.531 16.8248 176.287 16.6525 186.738 16.6525H199.715L200.634 10.5083C201.151 7.06295 201.438 4.19183 201.323 4.01957C200.691 3.38792 191.389 2.92854 178.699 2.92854C166.295 2.87112 164.975 2.98596 162.62 4.07699Z" fill="#1FD86D"/>
<path d="M242.265 10.4507C242.035 11.4843 241.633 14.4703 241.231 17.0543L240.6 21.8204H238.705C237.671 21.8204 235.661 21.9926 234.226 22.1649L231.642 22.5094L231.24 25.7825C231.068 27.5626 230.723 29.8595 230.551 30.8357L230.264 32.7306H234.685H239.107L238.762 34.281C237.499 40.0807 234.972 60.3508 235.259 62.016C235.776 65.002 238.131 68.1602 240.887 69.5958C243.011 70.7442 244.102 70.9165 250.476 70.9165C254.611 70.9165 258.917 70.572 260.64 70.17L263.683 69.3661L263.339 65.002C262.822 57.7094 262.994 57.9965 259.205 57.9965C255.357 57.9965 253.52 57.5945 253.175 56.6758C252.946 56.0441 255.3 36.9225 255.931 33.9939C256.219 32.788 256.506 32.7306 262.478 32.7306H268.679L269.311 27.9646C269.713 25.3806 270 22.9114 270 22.5094C270 21.9926 268.392 21.8204 263.971 21.8204C258.63 21.8204 257.941 21.7055 257.941 20.7868C257.941 19.868 258.63 15.102 259.377 10.4507L259.721 8.61322H251.165H242.552L242.265 10.4507Z" fill="#1FD86D"/>
<path d="M113.352 20.7294C104.796 21.5333 98.4794 24.4618 95.3212 28.9982C91.6461 34.4533 89.1195 46.8566 90.2106 54.5512C91.3016 62.5903 95.2063 67.7009 101.925 69.8255C105.887 71.0888 118.635 71.5482 124.779 70.6294C127.363 70.2849 131.153 69.481 133.163 68.8493L136.895 67.7009L136.493 63.2794C136.321 60.8676 135.976 58.3985 135.861 57.8243C135.517 56.6758 135.861 56.7332 124.434 57.4223C112.203 58.1114 108.758 57.1926 108.471 53.1156L108.356 51.3929L116.969 50.7039C131.153 49.5554 136.723 47.7753 139.479 43.6983C143.097 38.3581 142.752 30.3189 138.732 25.84C136.148 22.9689 132.301 21.4185 126.1 20.672C120.472 20.0403 120.242 20.0403 113.352 20.7294ZM124.205 33.3623C124.894 34.4533 124.836 37.1522 124.09 38.5878C123.745 39.2194 122.654 40.0807 121.621 40.4827C119.783 41.2292 109.217 42.3776 109.217 41.8034C109.217 41.6886 109.619 40.253 110.079 38.7026C110.94 35.7166 112.548 33.7643 114.96 32.7881C117.027 31.9268 123.516 32.3287 124.205 33.3623Z" fill="black"/>
<path d="M207.123 23.0838C206.95 23.8303 205.515 33.9366 203.964 45.6508C202.357 57.3075 200.921 67.5861 200.749 68.5049L200.404 70.0553H209.018H217.631L217.975 68.4475C218.148 67.5861 219.583 57.4798 221.191 45.9379C222.741 34.396 224.177 24.2897 224.349 23.3709L224.636 21.8205H216.023C207.582 21.8205 207.41 21.8205 207.123 23.0838Z" fill="#1FD86D"/>
</svg>
